#!OML:ASF H:\Terrain\Patient Classification 1\Terrain2\Thursday\justin.ASF
:FULLY-SPECIFIED
:DEGREES
209
root 9.02506 18.6586 -8.97445 2.21393 -2.53096 -3.74822
lowerback 20.8963 3.98759 4.96064
upperback 5.79152 6.23061 0.606623
thorax -4.85321 3.02307 -3.65311
lowerneck -17.1865 -3.37628 -10.473
upperneck 26.0162 -2.90066 4.57771
head 11.5818 -1.74719 3.03769
rclavicle 1.41137e-014 -1.55052e-014
rhumerus -21.9302 -5.00329 -80.9312
rradius 37.1832
rwrist -11.1419
rhand -17.4122 9.20655
rfingers 7.12502
rthumb 8.83764 -20.5884
lclavicle 1.41137e-014 -1.55052e-014
lhumerus -32.0606 10.1422 82.7931
lradius 33.8887
lwrist 4.09369
lhand -17.2423 24.3899
lfingers 7.12502
lthumb 9.00152 54.1779
rfemur 15.6216 1.85894 26.1495
rtibia 8.90112
rfoot 23.3432 4.91388
rtoes -4.61511
lfemur -78.6441 6.63063 -18.4619
ltibia 88.0209
lfoot -8.11473 -15.0812
ltoes 10.3287
210
root 9.04271 18.7865 -8.82751 2.94539 -2.82048 -3.9057
lowerback 20.6843 4.21182 4.93996
upperback 5.62411 6.50613 0.5139
thorax -4.89047 3.15335 -3.79248
lowerneck -16.9482 -3.47567 -10.3007
upperneck 25.5759 -3.14945 4.69754
head 11.3847 -1.82118 3.00859
rclavicle -3.45885e-014 1.43125e-014
rhumerus -22.0029 -5.1174 -81.0764
rradius 36.5477
rwrist -10.7681
rhand -17.4886 9.59003
rfingers 7.12502
rthumb 8.76383 -20.208
lclavicle -3.45885e-014 1.43125e-014
lhumerus -32.2206 9.29531 82.9434
lradius 34.0106
lwrist 5.01238
lhand -17.9494 24.158
lfingers 7.12502
lthumb 8.31916 53.9742
rfemur 16.6223 1.99452 25.9594
rtibia 4.93051
rfoot 28.7427 3.67941
rtoes -2.29437
lfemur -78.2708 6.74504 -18.2702
ltibia 87.6767
lfoot -8.61458 -14.8854
ltoes 10.8755
211
root 9.05932 18.9203 -8.68039 3.5863 -2.94579 -4.16769
lowerback 20.5215 4.2998 4.99161
upperback 5.48696 6.62559 0.488182
thorax -4.93402 3.20708 -3.86792
lowerneck -16.9304 -3.51019 -10.2082
upperneck 25.2896 -3.28412 4.90822
head 11.284 -1.84254 3.04613
rclavicle 2.08724e-014 -6.75868e-015
rhumerus -22.0673 -5.0402 -81.3274
rradius 36.106
rwrist -10.1518
rhand -18.135 9.01414
rfingers 7.12502
rthumb 8.14003 -20.8091
lclavicle 2.08724e-014 -6.75868e-015
lhumerus -32.4255 8.67868 83.0274
lradius 34.1253
lwrist 5.64764
lhand -18.0832 22.8842
lfingers 7.12502
lthumb 8.19005 52.7054
rfemur 18.218 1.97565 25.8564
rtibia -1.90833e-014
rfoot 34.4116 1.81862
rtoes 1.16925
lfemur -77.7673 6.70696 -17.9481
ltibia 87.2721
lfoot -9.83972 -14.6969
ltoes 9.04959
212
root 9.07594 19.0506 -8.53943 4.2877 -2.89132 -4.39301
lowerback 20.334 4.29432 5.05885
upperback 5.35968 6.62535 0.461299
thorax -4.96306 3.20327 -3.92373
lowerneck -17.1384 -3.60813 -10.4957
upperneck 25.1506 -3.47735 5.48968
head 11.3047 -1.88195 3.27872
rclavicle 1.88845e-014 -1.11319e-014
rhumerus -22.0758 -4.82055 -81.5612
rradius 35.8049
rwrist -9.75523
rhand -18.4426 8.74501
rfingers 7.12502
rthumb 7.84315 -21.0895
lclavicle 1.88845e-014 -1.11319e-014
lhumerus -32.4636 8.19695 83.2344
lradius 34.352
lwrist 6.13484
lhand -17.9044 22.4537
lfingers 7.12502
lthumb 8.36261 52.2682
rfemur 17.3237 1.77179 25.7169
rtibia -6.36111e-015
rfoot 37.1206 1.17545
rtoes 3.28923
lfemur -77.357 6.49392 -17.6791
ltibia 86.8127
lfoot -11.1025 -14.4729
ltoes 8.16724
213
root 9.09478 19.1681 -8.40521 5.03324 -2.70502 -4.9217
lowerback 20.0906 4.19667 5.53993
upperback 5.21443 6.59061 0.507935
thorax -4.94584 3.18178 -4.11827
lowerneck -17.1187 -3.68761 -10.5896
upperneck 24.7986 -3.62553 5.73302
head 11.1878 -1.92321 3.35562
rclavicle -7.15625e-015 2.38542e-015
rhumerus -22.0553 -4.5863 -81.6917
rradius 35.4181
rwrist -9.43998
rhand -18.172 9.05111
rfingers 7.12502
rthumb 8.10435 -20.7735
lclavicle -7.15625e-015 2.38542e-015
lhumerus -32.5077 7.73579 83.3666
lradius 34.571
lwrist 5.88186
lhand -17.0265 22.6178
lfingers 7.12502
lthumb 9.20978 52.3967
rfemur 16.4399 1.44429 25.9709
rtibia -2.54444e-014
rfoot 39.1642 1.16239
rtoes 5.32689
lfemur -77.1134 6.24809 -17.0783
ltibia 86.3264
lfoot -11.3161 -14.3932
ltoes 10.3443
214
root 9.11405 19.2872 -8.2715 5.69242 -2.68261 -5.4738
lowerback 19.8439 4.1221 5.99195
upperback 5.1079 6.5765 0.568827
thorax -4.8879 3.17253 -4.28327
lowerneck -16.9402 -3.64891 -10.3498
upperneck 24.2764 -3.59427 5.53191
head 10.9449 -1.90572 3.2354
rclavicle 4.57205e-015 3.02153e-014
rhumerus -21.9168 -4.17432 -81.8801
rradius 34.9255
rwrist -9.1264
rhand -18.1628 9.54734
rfingers 7.12502
rthumb 8.11324 -20.2769
lclavicle 4.57205e-015 3.02153e-014
lhumerus -32.557 7.13853 83.4736
lradius 34.7137
lwrist 5.28543
lhand -16.0616 22.1862
lfingers 7.12502
lthumb 10.1408 51.9219
rfemur 15.7155 1.27593 26.2563
rtibia 1.27222e-014
rfoot 40.5628 0.854786
rtoes 8.04472
lfemur -76.6722 6.1183 -16.4338
ltibia 85.704
lfoot -11.4875 -14.314
ltoes 9.91466
215
root 9.13113 19.4166 -8.13493 6.17536 -2.90646 -5.42033
lowerback 19.6968 4.18979 5.72898
upperback 5.07893 6.59845 0.484672
thorax -4.86041 3.18546 -4.2198
lowerneck -17.0487 -3.61384 -10.1805
upperneck 23.9855 -3.55618 5.45592
head 10.8486 -1.87679 3.17828
rclavicle -5.86415e-014 3.65764e-014
rhumerus -21.6866 -3.68739 -82.125
rradius 34.6708
rwrist -8.8801
rhand -18.143 9.45288
rfingers 7.12502
rthumb 8.13229 -20.3706
lclavicle -5.86415e-014 3.65764e-014
lhumerus -32.5183 6.46979 83.584
lradius 34.7124
lwrist 4.56499
lhand -15.3373 21.6923
lfingers 7.12502
lthumb 10.8394 51.3926
rfemur 15.236 1.2894 25.8668
rtibia 6.36111e-015
rfoot 41.6036 0.482911
rtoes 10.4418
lfemur -75.8258 6.01329 -16.4487
ltibia 84.9517
lfoot -12.0668 -14.0143
ltoes 14.3281
216
root 9.14754 19.5499 -7.99904 6.63643 -3.02122 -5.26211
lowerback 19.542 4.22515 5.39898
upperback 5.05079 6.56519 0.384558
thorax -4.83962 3.17181 -4.12387
lowerneck -17.3626 -3.59131 -10.1488
upperneck 23.8986 -3.53424 5.58479
head 10.876 -1.84374 3.22031
rclavicle -3.46879e-014 3.57812e-015
rhumerus -21.5125 -3.2958 -82.344
rradius 34.6578
rwrist -8.56149
rhand -17.2627 9.03154
rfingers 7.12502
rthumb 8.98184 -20.7573
lclavicle -3.46879e-014 3.57812e-015
lhumerus -32.5197 5.74449 83.6864
lradius 34.8755
lwrist 3.95607
lhand -14.7645 22.1969
lfingers 7.12502
lthumb 11.3919 51.8675
rfemur 14.1656 1.16128 25.4031
rtibia 1.28008
rfoot 42.0092 0.517649
rtoes 12.2471
lfemur -75.0175 5.83939 -16.5847
ltibia 84.2978
lfoot -12.6723 -13.6386
ltoes 11.9074
217
root 9.16209 19.6753 -7.86613 7.09723 -3.08775 -5.5668
lowerback 19.4167 4.21718 5.50784
upperback 4.98354 6.57345 0.42307
thorax -4.83771 3.17364 -4.13707
lowerneck -17.5225 -3.58479 -10.157
upperneck 23.7603 -3.54678 5.74554
head 10.8591 -1.8273 3.27556
rclavicle -8.74653e-015 -5.1684e-015
rhumerus -21.377 -3.01318 -82.5688
rradius 34.4418
rwrist -8.25619
rhand -16.1035 9.32031
rfingers 7.12502
rthumb 10.1003 -20.4173
lclavicle -8.74653e-015 -5.1684e-015
lhumerus -32.6776 4.56598 84.0716
lradius 35.4355
lwrist 4.42583
lhand -15.3135 23.4063
lfingers 7.12502
lthumb 10.8623 53.1054
rfemur 11.2351 0.982874 25.4689
rtibia 6.36777
rfoot 40.4114 0.62172
rtoes 14.1264
lfemur -74.3734 5.80294 -16.1896
ltibia 83.7654
lfoot -12.9902 -13.4948
ltoes 9.43389
218
root 9.17238 19.7907 -7.73758 7.3801 -3.16646 -5.91484
lowerback 19.4715 4.20771 5.59071
upperback 4.90008 6.58865 0.506356
thorax -4.95565 3.17285 -4.10812
lowerneck -17.4517 -3.52289 -10.0207
upperneck 23.5566 -3.50921 5.76814
head 10.7632 -1.79374 3.26281
rclavicle -4.87022e-015 5.40694e-014
rhumerus -21.3694 -2.61257 -82.8053
rradius 34.2683
rwrist -8.01467
rhand -15.5461 9.93178
rfingers 7.12502
rthumb 10.638 -19.7789
lclavicle -4.87022e-015 5.40694e-014
lhumerus -32.8663 3.58948 84.4421
lradius 35.7637
lwrist 4.8267
lhand -16.1447 23.0614
lfingers 7.12502
lthumb 10.0605 52.801
rfemur 9.60961 0.811212 25.6396
rtibia 9.32325
rfoot 39.3716 -0.053607
rtoes 15.7005
lfemur -73.4967 5.74428 -15.6964
ltibia 83.0992
lfoot -13.522 -13.4497
ltoes 9.55831
219
root 9.18335 19.9087 -7.61126 7.65498 -3.18737 -6.19686
lowerback 19.507 4.15243 5.63779
upperback 4.82368 6.53562 0.577767
thorax -5.06571 3.13967 -4.05545
lowerneck -17.3517 -3.43233 -9.81762
upperneck 23.2898 -3.43211 5.71611
head 10.6327 -1.74496 3.21614
rclavicle -8.32908e-014 2.46493e-014
rhumerus -21.405 -1.89934 -83.0443
rradius 34.3907
rwrist -7.82616
rhand -15.3249 9.92954
rfingers 7.12502
rthumb 10.8514 -19.7701
lclavicle -8.32908e-014 2.46493e-014
lhumerus -32.985 2.89991 84.6372
lradius 35.959
lwrist 4.63969
lhand -16.216 22.3328
lfingers 7.12502
lthumb 9.99176 52.0757
rfemur 8.10897 0.573801 25.7623
rtibia 12.0687
rfoot 37.9338 -1.10565
rtoes 14.5966
lfemur -72.4877 5.60163 -15.3156
ltibia 82.2016
lfoot -14.2658 -13.3795
ltoes 9.91676
220
root 9.19401 20.0347 -7.48329 8.06656 -3.20903 -6.62467
lowerback 19.3289 4.12681 5.8181
upperback 4.77003 6.53775 0.718039
thorax -5.02627 3.13965 -3.99316
lowerneck -17.411 -3.47907 -9.94067
upperneck 23.1096 -3.50392 5.91215
head 10.5903 -1.7627 3.29418
rclavicle -4.8901e-014 -2.18663e-015
rhumerus -21.2222 -1.23755 -83.155
rradius 34.5076
rwrist -7.49412
rhand -15.1613 9.67699
rfingers 7.12502
rthumb 11.0091 -20.0143
lclavicle -4.8901e-014 -2.18663e-015
lhumerus -33.0435 2.19264 84.8668
lradius 36.3379
lwrist 4.24184
lhand -15.5667 22.1379
lfingers 7.12502
lthumb 10.6182 51.8497
rfemur 6.42601 0.270747 26.0517
rtibia 14.875
rfoot 35.5826 -2.00325
rtoes 9.18477
lfemur -71.6595 5.56198 -14.8345
ltibia 81.2524
lfoot -14.6239 -13.2253
ltoes 10.2245
221
root 9.19961 20.1644 -7.35491 8.36957 -3.21658 -6.67881
lowerback 19.1569 4.09181 5.47279
upperback 4.74736 6.42778 0.891173
thorax -5.03256 3.08781 -3.58215
lowerneck -17.6103 -3.48657 -10.3068
upperneck 23.0521 -3.45365 6.1688
head 10.6153 -1.73874 3.45497
rclavicle 9.16397e-014 -8.94531e-015
rhumerus -20.9299 -0.663512 -83.1252
rradius 34.6003
rwrist -7.42384
rhand -14.622 9.57943
rfingers 7.12502
rthumb 11.5293 -20.0835
lclavicle 9.16397e-014 -8.94531e-015
lhumerus -33.157 1.91012 85.1595
lradius 36.7725
lwrist 3.7755
lhand -15.0101 21.9479
lfingers 7.12502
lthumb 11.155 51.6314
rfemur 4.89823 -0.322796 25.9588
rtibia 17.6068
rfoot 33.4628 -2.4662
rtoes 3.16527
lfemur -70.7238 5.40066 -14.7333
ltibia 80.3225
lfoot -14.9428 -12.8806
ltoes 9.63846
222
root 9.20576 20.2928 -7.23022 8.52638 -3.24137 -6.3704
lowerback 19.0815 4.00991 4.79244
upperback 4.71994 6.19206 0.944912
thorax -5.1259 2.97442 -3.09536
lowerneck -17.6317 -3.36752 -10.421
upperneck 22.8862 -3.25891 6.21193
head 10.5428 -1.65289 3.51466
rclavicle 5.06901e-014 1.98785e-015
rhumerus -20.8201 -0.17034 -83.2296
rradius 34.6648
rwrist -7.45483
rhand -14.3192 10.005
rfingers 7.12502
rthumb 11.8213 -19.6414
lclavicle 5.06901e-014 1.98785e-015
lhumerus -33.3986 1.69909 85.3499
lradius 37.2435
lwrist 3.4802
lhand -14.8165 21.9922
lfingers 7.12502
lthumb 11.3418 51.6655
rfemur 3.60062 -0.958645 25.4694
rtibia 20.2299
rfoot 32.627 -2.95245
rtoes 5.99878
lfemur -69.561 5.08393 -14.956
ltibia 79.3826
lfoot -15.3048 -12.6426
ltoes 9.65209
223
root 9.21533 20.4185 -7.10943 8.71359 -3.36069 -6.29318
lowerback 18.9949 3.98353 4.5093
upperback 4.66646 6.09831 0.894015
thorax -5.1701 2.92893 -2.96834
lowerneck -17.53 -3.3123 -10.2848
upperneck 22.7234 -3.25564 6.31419
head 10.4616 -1.62711 3.52635
rclavicle 3.57812e-015 -2.5842e-015
rhumerus -20.9101 0.167222 -83.5268
rradius 34.7947
rwrist -6.92082
rhand -15.1202 10.9606
rfingers 7.12502
rthumb 11.0488 -18.7285
lclavicle 3.57812e-015 -2.5842e-015
lhumerus -33.5148 1.12842 85.3382
lradius 37.5728
lwrist 3.10041
lhand -14.353 21.4651
lfingers 7.12502
lthumb 11.7888 51.1133
rfemur 2.30742 -1.43309 25.2194
rtibia 22.8226
rfoot 31.0772 -4.04397
rtoes 5.09278
lfemur -68.4974 4.92354 -14.9159
ltibia 78.5169
lfoot -15.3864 -12.7076
ltoes 12.2957
